<?xml version="1.0" standalone="no"?>
<!DOCTYPE svg PUBLIC "-//W3C//DTD SVG 20010904//EN"
 "http://www.w3.org/TR/2001/REC-SVG-20010904/DTD/svg10.dtd">
<svg version="1.0" xmlns="http://www.w3.org/2000/svg"
 width="342.000000pt" height="342.000000pt" viewBox="0 0 342.000000 342.000000"
 preserveAspectRatio="xMidYMid meet">
<metadata>
Created by potrace 1.11, written by Peter Selinger 2001-2013
</metadata>
<g transform="translate(0.000000,342.000000) scale(0.100000,-0.100000)"
fill="#000000" stroke="none">
<path d="M1509 3395 c-383 -77 -691 -378 -774 -758 -22 -102 -17 -358 10 -457
74 -273 269 -512 520 -637 120 -60 304 -103 441 -103 87 0 235 28 334 62 295
103 540 368 621 673 33 124 37 320 9 454 -80 388 -388 692 -778 766 -93 18
-292 18 -383 0z m387 -303 c346 -109 552 -453 480 -801 -77 -368 -436 -604
-811 -532 -256 49 -476 265 -531 521 -18 85 -18 229 1 310 48 202 204 387 400
472 136 60 327 72 461 30z"/>
<path d="M1664 2753 c-9 -15 -35 -64 -58 -108 l-41 -80 -80 -12 c-155 -24
-159 -26 -169 -56 -9 -26 -5 -33 74 -112 l84 -85 -14 -87 c-7 -49 -14 -108
-14 -133 -1 -39 2 -46 24 -53 21 -8 42 0 119 42 52 28 103 51 113 51 11 0 61
-22 112 -50 51 -27 100 -50 109 -50 9 0 23 10 31 23 13 20 14 33 1 112 -24
146 -26 140 65 230 61 61 80 86 80 107 0 32 -4 33 -150 57 l-95 16 -55 105
c-51 98 -57 105 -88 108 -27 3 -35 -2 -48 -25z"/>
<path d="M1136 1208 c-4 -106 -6 -416 -4 -690 l3 -496 93 88 92 88 0 561 0
562 -47 20 c-48 21 -112 50 -124 56 -4 2 -10 -83 -13 -189z"/>
<path d="M2133 1359 l-83 -40 0 -562 0 -563 68 -65 c37 -35 77 -73 90 -83 l22
-19 0 686 c0 378 -3 687 -7 686 -5 0 -45 -19 -90 -40z"/>
<path d="M1490 868 l0 -463 110 110 110 110 110 -110 110 -110 0 463 0 462
-62 -7 c-84 -10 -216 -10 -305 0 l-73 7 0 -462z"/>
</g>
</svg>
